<?xml version="1.0" encoding="UTF-8"?>
<svg version="1.1" xmlns="http://www.w3.org/2000/svg" width="200" height="200">
<path d="M0 0 C1.43860886 -0.00422974 1.43860886 -0.00422974 2.90628052 -0.00854492 C3.96193207 -0.00652069 5.01758362 -0.00449646 6.10522461 -0.00241089 C7.21421112 -0.00416321 8.32319763 -0.00591553 9.46578979 -0.00772095 C13.14639838 -0.01213678 16.82695925 -0.0092024 20.50756836 -0.00582886 C23.05582692 -0.00650197 25.60408541 -0.00747206 28.15234375 -0.00872803 C33.49894886 -0.01020464 38.84553674 -0.00814643 44.19213867 -0.00338745 C50.37807731 0.00205495 56.563983 0.00029221 62.74992085 -0.00521386 C68.69476408 -0.01029403 74.63959704 -0.00976217 80.58444214 -0.00683212 C83.11709599 -0.00616313 85.64975068 -0.00699032 88.18240356 -0.00931168 C91.71659603 -0.0118398 95.25072444 -0.00799529 98.78491211 -0.00241089 C99.84056366 -0.00443512 100.89621521 -0.00645935 101.9838562 -0.00854492 C102.94292877 -0.0057251 103.90200134 -0.00290527 104.89013672 0 C105.7263707 0.00037703 106.56260468 0.00075405 107.42417908 0.0011425 C109.44506836 0.12698364 109.44506836 0.12698364 111.44506836 1.12698364 C111.55228651 8.47555507 111.27295299 15.69272384 110.60522461 23.00979614 C110.5188121 23.99068207 110.4323996 24.97156799 110.34336853 25.98217773 C110.16162242 28.03098365 109.97748251 30.07957855 109.79101562 32.12796021 C109.50519993 35.27808736 109.22955508 38.42899658 108.95483398 41.58010864 C108.77639851 43.57755825 108.59738352 45.5749562 108.41772461 47.57229614 C108.29422386 48.98927292 108.29422386 48.98927292 108.16822815 50.43487549 C108.08822067 51.30022919 108.0082132 52.16558289 107.92578125 53.05715942 C107.85694229 53.82118073 107.78810333 54.58520203 107.71717834 55.37237549 C107.44506836 57.12698364 107.44506836 57.12698364 106.44506836 58.12698364 C105.02827925 58.22249062 103.60675595 58.24886847 102.18675232 58.24723816 C100.80897614 58.24930016 100.80897614 58.24930016 99.40336609 58.25140381 C97.87991325 58.24601089 97.87991325 58.24601089 96.32568359 58.24050903 C95.26239838 58.24065506 94.19911316 58.24080109 93.10360718 58.24095154 C89.57027178 58.24025189 86.03698836 58.23245707 82.50366211 58.22463989 C80.06128468 58.2227759 77.61890687 58.22135191 75.17652893 58.22035217 C68.73372371 58.21652554 62.29094088 58.20669401 55.84814453 58.19564819 C49.2795441 58.1854372 42.71094006 58.18085522 36.14233398 58.17581177 C23.24323587 58.16507187 10.3441533 58.14818468 -2.55493164 58.12698364 C-3.13146291 51.77789828 -3.70025962 45.42815257 -4.26391602 39.07791138 C-4.45618414 36.92183082 -4.65016282 34.76590204 -4.84594727 32.61013794 C-5.12854704 29.4950522 -5.40480249 26.3794558 -5.67993164 23.26370239 C-5.76742676 22.31428268 -5.85492188 21.36486298 -5.94506836 20.38667297 C-6.50513451 13.95172283 -6.65353408 7.58490541 -6.55493164 1.12698364 C-4.15695241 -0.07200597 -2.67756767 0.00120721 0 0 Z " fill="#000000" transform="translate(47.554931640625,116.87301635742188)"/>
<path d="M0 0 C15.24713306 -2.27462704 15.24713306 -2.27462704 21.11328125 2.0065918 C25.20766082 6.2161258 28.36079337 11.01686694 31.39404297 16.0246582 C33.32163652 19.09445824 35.51408097 21.91462052 37.76391602 24.75317383 C38.86328125 26.36450195 38.86328125 26.36450195 38.86328125 28.36450195 C39.52328125 28.36450195 40.18328125 28.36450195 40.86328125 28.36450195 C41.21326172 27.58139648 41.21326172 27.58139648 41.5703125 26.7824707 C43.29663262 23.55409562 45.41086755 20.6382725 47.55078125 17.67700195 C47.99413818 17.05994385 48.43749512 16.44288574 48.89428711 15.80712891 C57.91563086 3.31215234 57.91563086 3.31215234 60.86328125 0.36450195 C64.16694859 0.08173442 67.48648287 0.13252669 70.80078125 0.11450195 C71.71408203 0.09387695 72.62738281 0.07325195 73.56835938 0.05200195 C84.46981698 -0.00971897 93.01498533 2.6247793 100.86328125 10.36450195 C107.40061736 18.19336056 108.07953256 27.91694622 109.15234375 37.7355957 C109.31456924 39.17915184 109.31456924 39.17915184 109.48007202 40.65187073 C109.70595563 42.67438063 109.9293598 44.69716885 110.15039062 46.72021484 C110.48704356 49.79071339 110.83479989 52.85981476 111.18359375 55.92895508 C111.40301439 57.90609431 111.62178591 59.88330571 111.83984375 61.8605957 C111.99448593 63.21730629 111.99448593 63.21730629 112.1522522 64.60142517 C114.06562675 82.39988254 114.06562675 82.39988254 109.86328125 88.36450195 C106.064001 92.35140098 103.32841698 94.3886249 97.86328125 95.36450195 C97.99959961 93.64904175 97.99959961 93.64904175 98.13867188 91.89892578 C98.47924072 87.59593206 98.81307079 83.29243609 99.14501953 78.98876953 C99.28873155 77.13739228 99.43419405 75.28614994 99.58154297 73.43505859 C101.3620982 57.88073462 101.3620982 57.88073462 100.86328125 42.36450195 C97.64053576 40.21600496 96.79146648 40.11270277 93.08093262 40.10380554 C92.09668808 40.09672073 91.11244354 40.08963593 90.09837341 40.08233643 C88.48056725 40.08605255 88.48056725 40.08605255 86.83007812 40.08984375 C85.69329117 40.08473282 84.55650421 40.07962189 83.38526917 40.07435608 C79.61747005 40.06042507 75.8498531 40.06141936 72.08203125 40.0637207 C69.47033622 40.05983603 66.85864182 40.05550184 64.24694824 40.05073547 C58.76927059 40.04252025 53.29164452 40.04343235 47.81396484 40.04882812 C41.47969217 40.05487164 35.14564142 40.04254788 28.81140661 40.02125806 C22.71971017 40.00153533 16.6281177 39.99846612 10.53639221 40.00199318 C7.94315571 40.00147846 5.34991576 39.9962127 2.75669861 39.98618126 C-0.86354867 39.97389518 -4.48327714 39.98056151 -8.10351562 39.9921875 C-9.18205307 39.98454376 -10.26059052 39.97690002 -11.37181091 39.96902466 C-12.35605545 39.97603897 -13.34029999 39.98305328 -14.35437012 39.99028015 C-15.21050652 39.99011241 -16.06664291 39.98994467 -16.94872284 39.98977184 C-19.65186519 40.45272921 -20.55082475 41.14911582 -22.13671875 43.36450195 C-22.2502094 46.05146981 -22.18183721 48.45308153 -21.94921875 51.11450195 C-21.86619507 52.28541382 -21.86619507 52.28541382 -21.78149414 53.47998047 C-21.44256355 58.08502547 -21.02220518 62.68319986 -20.61328125 67.2824707 C-20.48022583 68.78245605 -20.48022583 68.78245605 -20.34448242 70.31274414 C-20.16907728 72.25281692 -19.98732187 74.19232998 -19.7980957 76.13110352 C-19.19483133 82.56061675 -19.0312357 88.9081578 -19.13671875 95.36450195 C-25.34302307 93.77684271 -28.40816377 90.92753175 -31.94921875 85.67700195 C-34.65280884 78.13540855 -32.98893885 69.32843424 -32.18359375 61.4934082 C-32.08210022 60.49043198 -31.98060669 59.48745575 -31.8760376 58.4540863 C-31.66029026 56.34702573 -31.44164242 54.24026029 -31.22021484 52.13378906 C-30.888117 48.9404471 -30.57664563 45.74550326 -30.265625 42.55004883 C-30.05205036 40.48937002 -29.8372469 38.42881813 -29.62109375 36.3684082 C-29.53237 35.42848526 -29.44364624 34.48856232 -29.35223389 33.52015686 C-28.21089324 23.13770001 -25.39864527 13.26508831 -17.13671875 6.36450195 C-11.55554609 2.86754846 -6.43962208 1.09853242 0 0 Z " fill="#010101" transform="translate(60.13671875,74.635498046875)"/>
<path d="M0 0 C8.3964433 6.1729949 14.74079268 13.68029124 16.54296875 24.15625 C17.69335089 35.74127486 15.74161738 44.70580241 8.46875 53.9453125 C2.58103201 60.36070333 -5.35895638 64.56165139 -14.06640625 65.23828125 C-24.90163797 65.46830293 -32.81588609 63.97710024 -41.3125 57 C-49.02620216 49.56880604 -52.39140132 40.93802495 -53.3125 30.4375 C-53.15276171 21.19042786 -49.67212383 11.47980097 -43 5 C-40.14775768 2.68222238 -37.21197811 0.78073398 -34 -1 C-33.40832031 -1.34160156 -32.81664063 -1.68320313 -32.20703125 -2.03515625 C-22.75467644 -6.52137321 -8.75938577 -5.3686558 0 0 Z " fill="#000000" transform="translate(118,7)"/>
<path d="M0 0 C40.92 0 81.84 0 124 0 C125.125 4.5 125.125 4.5 123.34765625 7.671875 C122.98349609 8.33574219 122.61933594 8.99960938 122.24414062 9.68359375 C121.65922852 10.70646484 121.65922852 10.70646484 121.0625 11.75 C120.67642578 12.44738281 120.29035156 13.14476562 119.89257812 13.86328125 C118.93926363 15.5816012 117.97104654 17.29163804 117 19 C102.74439603 19.18695612 88.48898234 19.32745819 74.23240376 19.41449738 C67.6125929 19.45626982 60.99360483 19.51293898 54.37426758 19.60351562 C47.98756502 19.69036325 41.60165437 19.73825862 35.21440697 19.75901794 C32.77621171 19.7738137 30.3380604 19.80270692 27.9002018 19.84584045 C24.48760569 19.90382535 21.0782917 19.91191683 17.6652832 19.90820312 C16.14937592 19.95134644 16.14937592 19.95134644 14.60284424 19.99536133 C7.90115496 19.91631994 7.90115496 19.91631994 5.29863548 17.27000427 C4.00374266 15.22631783 2.98147245 13.20838487 2 11 C1.071875 9.4221875 1.071875 9.4221875 0.125 7.8125 C-1 5 -1 5 0 0 Z " fill="#010101" transform="translate(38,179)"/>
<path d="M0 0 C2.73828125 0.0234375 2.73828125 0.0234375 5.125 0.375 C7.1875 2.625 7.1875 2.625 8.125 5.375 C8.38796875 5.973125 8.6509375 6.57125 8.921875 7.1875 C9.24578556 10.67576758 7.37011221 12.40073585 5.3125 15.125 C4.58417969 16.10984375 3.85585937 17.0946875 3.10546875 18.109375 C2.45191406 18.85703125 1.79835938 19.6046875 1.125 20.375 C0.465 20.375 -0.195 20.375 -0.875 20.375 C-4.30426501 16.80409143 -7.8308046 12.85730853 -7.921875 7.7421875 C-6.62605007 1.98502244 -6.0422838 0.22768026 0 0 Z " fill="#010101" transform="translate(99.875,76.625)"/>
</svg>
