<svg width="120" height="120" viewBox="0 0 120 120" fill="none" xmlns="http://www.w3.org/2000/svg">
  <circle cx="34" cy="30" r="12" fill="#FB6C2A" />
  <circle cx="86" cy="30" r="12" fill="#1E5BB2" />
  <rect x="18" y="44" width="32" height="38" rx="16" fill="#FB6C2A" />
  <rect x="70" y="44" width="32" height="38" rx="16" fill="#1E5BB2" />
  <path d="M38 52C38 46 44 42 50 42H70C76 42 82 46 82 52V58C82 62 78 66 74 66H54C50 66 46 62 46 58V52H38Z" fill="white" opacity="0.75" />
  <path d="M36 86C36 78 42 72 50 72H70C78 72 84 78 84 86V92H36V86Z" fill="#0F172A" opacity="0.08" />
</svg>
